<?xml version="1.0" standalone="no"?><!DOCTYPE svg PUBLIC "-//W3C//DTD SVG 1.1//EN" "http://www.w3.org/Graphics/SVG/1.1/DTD/svg11.dtd"><svg t="1709478067294" class="icon" viewBox="0 0 1024 1024" version="1.1" xmlns="http://www.w3.org/2000/svg" p-id="2450" width="32" height="32" xmlns:xlink="http://www.w3.org/1999/xlink"><path d="M390.024533 341.333333l120.6784 120.661334L631.381333 341.333333a34.133333 34.133333 0 0 1 46.114134-1.9968l2.167466 1.9968a34.133333 34.133333 0 0 1 0 48.264534L558.967467 510.293333l120.695466 120.695467a34.133333 34.133333 0 0 1-48.2816 48.264533l-120.6784-120.695466-120.661333 120.695466a34.133333 34.133333 0 0 1-46.114133 1.9968l-2.167467-1.9968a34.133333 34.133333 0 0 1 0-48.264533l120.661333-120.695467-120.661333-120.661333A34.133333 34.133333 0 1 1 390.024533 341.333333z" p-id="2451"></path></svg>